<?xml version="1.0" encoding="UTF-8"?>
<svg width="150px" height="157px" viewBox="0 0 150 157" version="1.1" xmlns="http://www.w3.org/2000/svg" xmlns:xlink="http://www.w3.org/1999/xlink">
    <!-- Generator: Sketch 39.1 (31720) - http://www.bohemiancoding.com/sketch -->
    <title>fang</title>
    <desc>Created with Sketch.</desc>
    <defs></defs>
    <g id="Page-1" stroke="none" stroke-width="1" fill="none" fill-rule="evenodd">
        <g id="fang" fill="#000000">
            <polygon id="Shape" points="29.211391 1.82152245 65.6516977 1.82152245 65.6516977 20.3689485 29.211391 20.3689485 29.211391 1.82152245"></polygon>
            <path d="M139.841731,42.6259584 L149.879244,42.6259584 L149.879244,24.0785323 L103.619606,24.0785323 C103.619606,23.5330778 103.728697,22.878368 103.728697,22.3329135 L103.728697,0.0759036145 L84.0901972,0.0759036145 L84.0901972,22.3329135 C84.0901972,33.4613363 78.6349945,43.8261227 69.3612815,50.0449617 L80.3806134,66.3013143 C89.1088719,60.4097481 95.7640745,52.1180175 99.6918401,42.6259584 L120.203231,42.6259584 L120.203231,58.7732202 C120.203231,73.6112267 116.711993,85.8307229 111.693154,95.9773275 C108.311008,88.5583242 106.237952,80.4847755 106.237952,71.9746988 L86.5994524,71.9746988 C86.5994524,86.3763417 90.9635816,100.668729 99.2553122,114.306572 C90.4179628,124.344085 80.816977,130.781106 75.3617744,134.381435 L74.1616101,135.145235 L85.1809419,151.401588 L86.2720153,150.637788 C91.6181271,147.037459 101.437295,140.491183 111.147536,130.235487 C118.566539,138.636473 127.62207,146.710022 138.314129,154.456298 L149.87908,138.527218 C141.041731,132.090197 131.549836,124.016484 123.585214,114.524589 C132.749836,100.450383 139.732475,82.1209748 139.732475,58.663965 L139.732475,42.6257941 L139.841731,42.6259584 Z" id="Shape"></path>
            <polygon id="Shape" points="0.0809967141 30.7337349 65.324425 30.7337349 65.324425 49.281161 0.0809967141 49.281161 0.0809967141 30.7337349"></polygon>
            <path d="M64.9971522,59.6459474 L14.8099124,59.6459474 L14.8099124,94.0133625 C14.8099124,105.141785 9.35470975,115.506572 0.0809967141,121.725411 L11.1003286,137.981763 C25.7201533,128.053341 34.4484118,111.687897 34.4484118,94.0133625 L34.4484118,78.1933735 L45.5768346,78.1933735 L45.5768346,112.66988 C45.5768346,123.798302 40.121632,134.163089 30.8479189,140.381928 L41.8672508,156.63828 C56.4870756,146.709858 65.2153341,130.344414 65.2153341,112.66988 L64.9971522,59.6459474 L64.9971522,59.6459474 Z" id="Shape"></path>
        </g>
    </g>
</svg>