<!-- Generated by IcoMoon.io -->
<svg version="1.1" xmlns="http://www.w3.org/2000/svg" width="1014" height="1024" viewBox="0 0 1014 1024">
<title></title>
<g id="icomoon-ignore">
</g>
<path fill="#000" d="M308.794 81.017h-112.892c0 36.524-29.883 66.407-66.407 66.407v112.892c98.947 0 179.3-80.353 179.3-179.3z"></path>
<path fill="#000" d="M873.92 667.393l19.258-209.183h-86.329v-173.323h-360.591c9.297-30.547 17.266-57.11 22.578-77.032h112.892c13.946 0 27.891 0.664 41.837 0.664 53.79 1.992 109.572 3.984 165.354-19.922l-47.149-102.931c-31.211 13.281-69.728 11.953-114.22 10.625-14.61-0.664-29.883-1.328-45.821-1.328h-203.206l-11.953 37.188c0 1.328-17.266 63.087-45.157 152.737h-191.917v112.892h156.057c-10.625 31.875-21.914 65.743-33.868 99.611-106.252 304.145-166.682 413.053-185.276 429.655l0.664-0.664 71.72 95.626c19.922-15.274 72.384-54.454 213.831-450.905h410.397l-3.984 48.477h-398.444v112.892h507.351l0.664 69.064c0 56.446-45.821 101.603-101.603 101.603v119.533c122.189 0 221.136-99.611 221.136-221.136v-134.143h-114.22zM687.315 397.115v60.431h-296.176c6.641-20.586 13.281-41.173 19.922-60.431h276.254z"></path>
<path fill="#000" d="M319.419 833.411c19.922 38.516 68.399 130.158 95.626 156.057l73.712-76.368c-11.289-11.953-47.813-76.368-75.040-128.166l-94.298 48.477z"></path>
<path fill="#000" d="M532.586 833.411c19.922 38.516 68.399 130.158 95.626 156.057l73.712-76.368c-11.289-11.953-47.813-76.368-75.040-128.166l-94.298 48.477z"></path>
</svg>
