<!-- Generated by IcoMoon.io -->
<svg version="1.1" xmlns="http://www.w3.org/2000/svg" width="1014" height="1024" viewBox="0 0 1014 1024">
<title></title>
<g id="icomoon-ignore">
</g>
<path fill="#000" d="M221.8 63.087h221.8v112.892h-221.8v-112.892z"></path>
<path fill="#000" d="M895.17 311.45h61.095v-112.892h-281.567c0-3.32 0.664-7.305 0.664-10.625v-135.471h-119.533v135.471c0 67.735-33.204 130.822-89.65 168.674l67.071 98.947c53.126-35.86 93.634-86.329 117.541-144.104h124.846v98.283c0 90.314-21.25 164.69-51.798 226.449-20.586-45.157-33.204-94.298-33.204-146.096h-119.533c0 87.658 26.563 174.651 77.032 257.66-53.79 61.095-112.228 100.275-145.432 122.189l-7.305 4.649 67.071 98.947 6.641-4.649c32.54-21.914 92.306-61.759 151.409-124.182 45.157 51.134 100.275 100.275 165.354 147.424l70.392-96.955c-53.79-39.18-111.564-88.322-160.042-146.096 55.782-85.665 98.283-197.23 98.283-340.005v-97.619z"></path>
<path fill="#000" d="M44.493 239.066h397.115v112.892h-397.115v-112.892z"></path>
<path fill="#000" d="M439.616 415.045h-305.473v209.183c0 67.735-33.204 130.822-89.65 168.674l67.071 98.947c88.986-60.431 142.112-160.042 142.112-267.621v-96.291h67.735v209.847c0 67.735-33.204 130.822-89.65 168.674l67.071 98.947c88.986-60.431 142.112-160.042 142.112-267.621l-1.328-322.739z"></path>
</svg>
