<?xml version="1.0" standalone="no"?>
<!DOCTYPE svg PUBLIC "-//W3C//DTD SVG 20010904//EN"
 "http://www.w3.org/TR/2001/REC-SVG-20010904/DTD/svg10.dtd">
<svg version="1.0" xmlns="http://www.w3.org/2000/svg"
 width="180.000000pt" height="180.000000pt" viewBox="0 0 180.000000 180.000000"
 preserveAspectRatio="xMidYMid meet">
<metadata>
Created by potrace 1.11, written by Peter Selinger 2001-2013
</metadata>
<g transform="translate(0.000000,180.000000) scale(0.100000,-0.100000)"
fill="#000000" stroke="none">
<path d="M262 1766 c-16 -44 -55 -82 -92 -90 l-30 -5 0 -107 0 -107 51 6 c148
18 269 145 290 305 4 29 -4 32 -104 32 l-103 0 -12 -34z"/>
<path d="M1268 1780 c-15 -4 -165 -7 -333 -6 -168 1 -309 -1 -314 -4 -5 -3
-20 -45 -35 -95 -15 -49 -39 -129 -53 -177 l-27 -88 -183 0 -184 0 3 -107 3
-108 148 1 c98 0 146 -4 143 -11 -3 -5 -18 -52 -35 -103 -32 -94 -155 -431
-171 -467 -5 -11 -28 -65 -51 -120 -46 -111 -99 -220 -134 -275 l-23 -36 65
-87 c36 -48 68 -87 72 -87 56 3 220 334 366 742 24 66 45 108 54 110 9 2 185
4 391 3 l375 -1 1 -34 c1 -64 25 -60 -387 -60 l-380 0 3 -107 3 -108 484 0
483 0 -4 -100 c-3 -85 -7 -105 -28 -136 -29 -45 -78 -77 -127 -85 l-38 -6 1
-109 c1 -60 4 -112 8 -116 12 -12 129 16 184 44 100 50 174 138 210 251 16 49
20 90 21 221 l2 161 -111 0 c-109 0 -110 0 -106 23 3 12 8 54 11 92 3 39 8 93
10 120 3 28 7 76 10 107 l4 57 -82 3 -82 3 0 163 0 162 -342 0 c-189 0 -343 3
-343 6 0 4 9 38 21 76 l20 69 242 -2 c208 -2 251 0 305 16 36 10 61 23 59 29
-18 45 -72 163 -80 174 -11 13 -11 14 -49 2z m-66 -589 c4 0 6 -26 6 -56 l-2
-55 -284 0 c-267 0 -284 1 -277 18 7 16 23 65 30 88 2 7 87 10 261 9 143 -1
262 -3 266 -4z"/>
<path d="M588 406 c-43 -22 -78 -45 -78 -51 0 -15 120 -221 151 -257 l27 -33
66 70 c36 39 66 73 66 76 0 4 -17 36 -38 70 -21 35 -51 88 -67 117 -15 28 -33
52 -39 51 -6 -1 -46 -20 -88 -43z"/>
<path d="M1005 412 c-38 -21 -75 -41 -82 -45 -12 -7 4 -43 70 -157 33 -57 90
-140 96 -140 4 0 37 31 75 69 l69 69 -51 84 c-27 45 -58 100 -68 121 -10 20
-22 37 -28 37 -6 -1 -42 -18 -81 -38z"/>
</g>
</svg>
